<?xml version="1.0" encoding="UTF-8"?>
<svg version="1.1" xmlns="http://www.w3.org/2000/svg" width="128" height="128">
<path d="M0 0 C0.85207031 0.32742187 1.70414062 0.65484375 2.58203125 0.9921875 C16.84636987 7.14719345 26.40698003 19.98075232 32.703125 33.65625 C37.86040532 46.95333421 38.26103807 63.7886246 33.25390625 77.1875 C25.96278346 93.54142029 14.71451157 106.0228415 -2 113 C-2.76054688 113.32097656 -3.52109375 113.64195313 -4.3046875 113.97265625 C-19.22157904 119.0958698 -36.79797095 117.00742874 -50.875 110.71484375 C-64.67313221 103.83494172 -75.09169906 92.1539517 -81 78 C-81.48146484 76.85917969 -81.48146484 76.85917969 -81.97265625 75.6953125 C-86.61337175 62.18327575 -85.60899908 45.01956408 -80 32 C-79.67257813 31.14792969 -79.34515625 30.29585937 -79.0078125 29.41796875 C-72.85280655 15.15363013 -60.01924768 5.59301997 -46.34375 -0.703125 C-31.87200808 -6.31599686 -14.26250164 -6.14447289 0 0 Z " fill="#6E65C5" transform="translate(88,8)"/>
<path d="M0 0 C1.15628906 0.00607269 1.15628906 0.00607269 2.3359375 0.01226807 C3.12742187 0.01035461 3.91890625 0.00844116 4.734375 0.00646973 C6.4088574 0.00510789 8.08335035 0.00880425 9.7578125 0.01715088 C12.32576131 0.02785067 14.89301053 0.01725582 17.4609375 0.00445557 C19.08593905 0.00577716 20.71094016 0.00833956 22.3359375 0.01226807 C23.10679688 0.0082196 23.87765625 0.00417114 24.671875 0 C30.10601618 0.04797174 30.10601618 0.04797174 32.3359375 2.27789307 C32.53125 5.53570557 32.53125 5.53570557 32.4609375 9.40289307 C32.44289062 10.68422119 32.42484375 11.96554932 32.40625 13.28570557 C32.38304687 14.27312744 32.35984375 15.26054932 32.3359375 16.27789307 C33.32335937 16.25468994 34.31078125 16.23148682 35.328125 16.20758057 C36.60945313 16.18953369 37.89078125 16.17148682 39.2109375 16.15289307 C41.12519531 16.11808838 41.12519531 16.11808838 43.078125 16.08258057 C46.3359375 16.27789307 46.3359375 16.27789307 48.3359375 18.27789307 C48.58990479 20.47906494 48.58990479 20.47906494 48.59472656 23.24664307 C48.60103088 24.28111572 48.60733521 25.31558838 48.61383057 26.38140869 C48.6097821 27.50224854 48.60573364 28.62308838 48.6015625 29.77789307 C48.60443268 31.49782471 48.60443268 31.49782471 48.60736084 33.25250244 C48.60872372 35.68023904 48.60502017 38.10798291 48.59667969 40.53570557 C48.58598188 44.26243379 48.59657181 47.98867992 48.609375 51.71539307 C48.60805342 54.0695608 48.60549107 56.42372824 48.6015625 58.77789307 C48.60561096 59.89873291 48.60965942 61.01957275 48.61383057 62.17437744 C48.60752625 63.2088501 48.60122192 64.24332275 48.59472656 65.30914307 C48.59313538 66.22244385 48.59154419 67.13574463 48.58990479 68.07672119 C48.3359375 70.27789307 48.3359375 70.27789307 46.3359375 72.27789307 C43.63458427 72.4776304 41.03796539 72.5577088 38.3359375 72.54351807 C37.54445312 72.54543152 36.75296875 72.54734497 35.9375 72.54931641 C34.2630176 72.55067824 32.58852465 72.54698188 30.9140625 72.53863525 C28.34611369 72.52793547 25.77886447 72.53853032 23.2109375 72.55133057 C21.58593595 72.55000897 19.96093484 72.54744658 18.3359375 72.54351807 C17.56507812 72.54756653 16.79421875 72.55161499 16 72.55578613 C10.56585882 72.50781439 10.56585882 72.50781439 8.3359375 70.27789307 C8.140625 67.02008057 8.140625 67.02008057 8.2109375 63.15289307 C8.22898437 61.87156494 8.24703125 60.59023682 8.265625 59.27008057 C8.28882813 58.28265869 8.31203125 57.29523682 8.3359375 56.27789307 C7.34851562 56.30109619 6.36109375 56.32429932 5.34375 56.34820557 C4.06242187 56.36625244 2.78109375 56.38429932 1.4609375 56.40289307 C0.18476562 56.42609619 -1.09140625 56.44929932 -2.40625 56.47320557 C-5.6640625 56.27789307 -5.6640625 56.27789307 -7.6640625 54.27789307 C-7.91802979 52.07672119 -7.91802979 52.07672119 -7.92285156 49.30914307 C-7.92915588 48.27467041 -7.93546021 47.24019775 -7.94195557 46.17437744 C-7.9379071 45.0535376 -7.93385864 43.93269775 -7.9296875 42.77789307 C-7.93160095 41.63127197 -7.9335144 40.48465088 -7.93548584 39.30328369 C-7.93684872 36.87554709 -7.93314517 34.44780323 -7.92480469 32.02008057 C-7.91410688 28.29335234 -7.92469681 24.56710621 -7.9375 20.84039307 C-7.93617842 18.48622533 -7.93361607 16.1320579 -7.9296875 13.77789307 C-7.93373596 12.65705322 -7.93778442 11.53621338 -7.94195557 10.38140869 C-7.93565125 9.34693604 -7.92934692 8.31246338 -7.92285156 7.24664307 C-7.92126038 6.33334229 -7.91966919 5.4200415 -7.91802979 4.47906494 C-7.35620398 -0.39036212 -4.14604724 0.03660065 0 0 Z " fill="#FBFBFD" transform="translate(43.6640625,27.72210693359375)"/>
<path d="M0 0 C3.64581687 -0.02887512 7.29160463 -0.04675585 10.9375 -0.0625 C12.49887695 -0.07506836 12.49887695 -0.07506836 14.09179688 -0.08789062 C15.57583008 -0.09272461 15.57583008 -0.09272461 17.08984375 -0.09765625 C18.46450806 -0.10551147 18.46450806 -0.10551147 19.86694336 -0.11352539 C22 0 22 0 23 1 C23.08700342 2.63472882 23.10701063 4.27314055 23.09765625 5.91015625 C23.09443359 6.89951172 23.09121094 7.88886719 23.08789062 8.90820312 C23.07951172 9.94912109 23.07113281 10.99003906 23.0625 12.0625 C23.05798828 13.10728516 23.05347656 14.15207031 23.04882812 15.22851562 C23.03699913 17.8190666 23.02051689 20.40950559 23 23 C21.68 23 20.36 23 19 23 C19 16.73 19 10.46 19 4 C12.73 4 6.46 4 0 4 C0 2.68 0 1.36 0 0 Z " fill="#C4C0E8" transform="translate(83,22)"/>
<path d="M0 0 C0.91644287 0.00523682 1.83288574 0.01047363 2.77709961 0.01586914 C3.76645508 0.0190918 4.75581055 0.02231445 5.77514648 0.02563477 C6.81606445 0.03401367 7.85698242 0.04239258 8.92944336 0.05102539 C10.49662109 0.05779297 10.49662109 0.05779297 12.09545898 0.06469727 C14.68600996 0.07652627 17.27644895 0.0930085 19.86694336 0.11352539 C19.86694336 1.43352539 19.86694336 2.75352539 19.86694336 4.11352539 C13.59694336 4.11352539 7.32694336 4.11352539 0.86694336 4.11352539 C0.86694336 10.38352539 0.86694336 16.65352539 0.86694336 23.11352539 C-0.45305664 23.11352539 -1.77305664 23.11352539 -3.13305664 23.11352539 C-3.16193176 19.46770852 -3.17981249 15.82192076 -3.19555664 12.17602539 C-3.20393555 11.13510742 -3.21231445 10.09418945 -3.22094727 9.02172852 C-3.22578125 7.53769531 -3.22578125 7.53769531 -3.23071289 6.02368164 C-3.23594971 5.10723877 -3.24118652 4.1907959 -3.24658203 3.24658203 C-3.09288428 0.35871702 -2.88786501 0.15369775 0 0 Z " fill="#C2C6F0" transform="translate(25.133056640625,21.886474609375)"/>
<path d="M0 0 C0.99 0 1.98 0 3 0 C3 6.27 3 12.54 3 19 C9.27 19 15.54 19 22 19 C22 20.32 22 21.64 22 23 C14.74 23 7.48 23 0 23 C0 15.41 0 7.82 0 0 Z " fill="#C9C5E9" transform="translate(23,83)"/>
<path d="M0 0 C8.58 0 17.16 0 26 0 C26 1.32 26 2.64 26 4 C17.42 4 8.84 4 0 4 C0 2.68 0 1.36 0 0 Z " fill="#BAA5D0" transform="translate(59,74)"/>
<path d="M0 0 C8.58 0 17.16 0 26 0 C26 1.32 26 2.64 26 4 C17.42 4 8.84 4 0 4 C0 2.68 0 1.36 0 0 Z " fill="#9F82BE" transform="translate(59,64)"/>
<path d="M0 0 C8.58 0 17.16 0 26 0 C26 1.32 26 2.64 26 4 C17.42 4 8.84 4 0 4 C0 2.68 0 1.36 0 0 Z " fill="#774CA2" transform="translate(59,54)"/>
<path d="M0 0 C8.58 0 17.16 0 26 0 C26 1.32 26 2.64 26 4 C17.42 4 8.84 4 0 4 C0 2.68 0 1.36 0 0 Z " fill="#677EEA" transform="translate(43,38)"/>
<path d="M0 0 C0.66 0 1.32 0 2 0 C2 7.26 2 14.52 2 22 C-5.26 22 -12.52 22 -20 22 C-20 21.34 -20 20.68 -20 20 C-13.4 20 -6.8 20 0 20 C0 13.4 0 6.8 0 0 Z " fill="#E3DDEF" transform="translate(103,83)"/>
<path d="M0 0 C5.94 0 11.88 0 18 0 C18 1.32 18 2.64 18 4 C12.06 4 6.12 4 0 4 C0 2.68 0 1.36 0 0 Z " fill="#C8B7DA" transform="translate(59,84)"/>
<path d="M0 0 C2.97 0 5.94 0 9 0 C9 1.32 9 2.64 9 4 C6.03 4 3.06 4 0 4 C0 2.68 0 1.36 0 0 Z " fill="#BEC7F5" transform="translate(43,68)"/>
<path d="M0 0 C2.97 0 5.94 0 9 0 C9 1.32 9 2.64 9 4 C6.03 4 3.06 4 0 4 C0 2.68 0 1.36 0 0 Z " fill="#AFBBF3" transform="translate(43,58)"/>
<path d="M0 0 C2.97 0 5.94 0 9 0 C9 1.32 9 2.64 9 4 C6.03 4 3.06 4 0 4 C0 2.68 0 1.36 0 0 Z " fill="#93A3EF" transform="translate(43,48)"/>
</svg>
